<?xml version="1.0" encoding="UTF-8"?>
<svg version="1.1" xmlns="http://www.w3.org/2000/svg" width="48" height="48">
<path d="M0 0 C2.64 0 5.28 0 8 0 C8 15.84 8 31.68 8 48 C-4.54 48 -17.08 48 -30 48 C-30 47.34 -30 46.68 -30 46 C-30.66 45.67 -31.32 45.34 -32 45 C-31.34 45 -30.68 45 -30 45 C-30 44.01 -30 43.02 -30 42 C-19.77 42 -9.54 42 1 42 C1 36.72 1 31.44 1 26 C-3.95 26 -8.9 26 -14 26 C-14 24.68 -14 23.36 -14 22 C-9.38 22 -4.76 22 0 22 C0 14.74 0 7.48 0 0 Z " fill="#FFFFFF" transform="translate(40,0)"/>
<path d="M0 0 C12.54 0 25.08 0 38 0 C38 1.98 38 3.96 38 6 C27.77 6 17.54 6 7 6 C7 11.28 7 16.56 7 22 C12.28 22 17.56 22 23 22 C23 23.32 23 24.64 23 26 C18.05 26 13.1 26 8 26 C7.67 33.26 7.34 40.52 7 48 C4.69 48 2.38 48 0 48 C0 32.16 0 16.32 0 0 Z " fill="#FFFFFF" transform="translate(0,0)"/>
</svg>
